<svg viewBox="0 0 100 100" xmlns="http://www.w3.org/2000/svg">
  <defs>
    <linearGradient id="diamondGradient" x1="0%" y1="0%" x2="100%" y2="100%">
      <stop offset="0%" style="stop-color:#89f7fe;stop-opacity:1" />
      <stop offset="100%" style="stop-color:#66a6ff;stop-opacity:1" />
    </linearGradient>
    <linearGradient id="diamondFacet1" x1="0%" y1="0%" x2="100%" y2="100%">
      <stop offset="0%" style="stop-color:#ffffff;stop-opacity:0.8" />
      <stop offset="100%" style="stop-color:#89f7fe;stop-opacity:0.3" />
    </linearGradient>
    <filter id="diamondShadow" x="-50%" y="-50%" width="200%" height="200%">
      <feDropShadow dx="3" dy="6" stdDeviation="4" flood-color="rgba(0,0,0,0.3)"/>
    </filter>
  </defs>
  
  <!-- Diamond Base -->
  <path d="M50 85 L20 45 L30 15 L70 15 L80 45 Z" 
        fill="url(#diamondGradient)" 
        filter="url(#diamondShadow)"/>
  
  <!-- Top Facets -->
  <path d="M30 15 L50 15 L40 45 L20 45 Z" 
        fill="url(#diamondFacet1)"/>
  
  <path d="M50 15 L70 15 L60 45 L40 45 Z" 
        fill="rgba(255,255,255,0.6)"/>
  
  <path d="M70 15 L80 45 L60 45 Z" 
        fill="rgba(255,255,255,0.4)"/>
  
  <!-- Bottom Facets -->
  <path d="M20 45 L40 45 L50 85 Z" 
        fill="rgba(255,255,255,0.2)"/>
  
  <path d="M40 45 L60 45 L50 85 Z" 
        fill="rgba(255,255,255,0.3)"/>
  
  <path d="M60 45 L80 45 L50 85 Z" 
        fill="rgba(0,0,0,0.1)"/>
  
  <!-- Sparkles -->
  <circle cx="45" cy="25" r="1.5" fill="#ffffff" opacity="0.9"/>
  <circle cx="55" cy="35" r="1" fill="#ffffff" opacity="0.7"/>
  <circle cx="35" cy="55" r="1" fill="#ffffff" opacity="0.6"/>
</svg>
