<svg viewBox="0 0 100 100" xmlns="http://www.w3.org/2000/svg">
  <defs>
    <linearGradient id="heartGradient" x1="0%" y1="0%" x2="100%" y2="100%">
      <stop offset="0%" style="stop-color:#ff758c;stop-opacity:1" />
      <stop offset="100%" style="stop-color:#ff7eb3;stop-opacity:1" />
    </linearGradient>
    <filter id="heartShadow" x="-50%" y="-50%" width="200%" height="200%">
      <feDropShadow dx="2" dy="4" stdDeviation="3" flood-color="rgba(0,0,0,0.25)"/>
    </filter>
    <radialGradient id="heartHighlight" cx="35%" cy="25%" r="40%">
      <stop offset="0%" style="stop-color:#ffffff;stop-opacity:0.7" />
      <stop offset="100%" style="stop-color:#ffffff;stop-opacity:0" />
    </radialGradient>
  </defs>
  
  <!-- Heart Shape -->
  <path d="M50 85 Q25 60 25 40 Q25 25 35 25 Q45 25 50 35 Q55 25 65 25 Q75 25 75 40 Q75 60 50 85 Z" 
        fill="url(#heartGradient)" 
        filter="url(#heartShadow)"/>
  
  <!-- Highlight -->
  <ellipse cx="40" cy="35" rx="8" ry="12" 
           fill="url(#heartHighlight)"/>
  
  <!-- Small Heart -->
  <path d="M70 20 Q65 17 65 20 Q65 22 67 24 Q69 22 69 20 Q69 17 70 20 Q71 17 71 20 Q71 22 73 24 Q75 22 75 20 Q75 17 70 20 Z" 
        fill="#ff6b9d" opacity="0.6"/>
</svg>
