<svg viewBox="0 0 100 100" xmlns="http://www.w3.org/2000/svg">
  <defs>
    <linearGradient id="bagGradient" x1="0%" y1="0%" x2="100%" y2="100%">
      <stop offset="0%" style="stop-color:#667eea;stop-opacity:1" />
      <stop offset="100%" style="stop-color:#764ba2;stop-opacity:1" />
    </linearGradient>
    <linearGradient id="handleGradient" x1="0%" y1="0%" x2="100%" y2="100%">
      <stop offset="0%" style="stop-color:#4facfe;stop-opacity:1" />
      <stop offset="100%" style="stop-color:#00f2fe;stop-opacity:1" />
    </linearGradient>
    <filter id="shadow" x="-50%" y="-50%" width="200%" height="200%">
      <feDropShadow dx="2" dy="4" stdDeviation="3" flood-color="rgba(0,0,0,0.3)"/>
    </filter>
  </defs>
  
  <!-- Bag Body -->
  <path d="M25 35 L75 35 L70 80 Q70 85 65 85 L35 85 Q30 85 30 80 L25 35 Z" 
        fill="url(#bagGradient)" 
        filter="url(#shadow)" />
  
  <!-- Bag Top -->
  <ellipse cx="50" cy="35" rx="25" ry="3" fill="#5a67d8" opacity="0.8"/>
  
  <!-- Left Handle -->
  <path d="M35 35 Q30 25 30 20 Q30 15 35 15 Q40 15 40 20 Q40 25 35 35" 
        fill="none" 
        stroke="url(#handleGradient)" 
        stroke-width="4" 
        stroke-linecap="round"/>
  
  <!-- Right Handle -->
  <path d="M65 35 Q70 25 70 20 Q70 15 65 15 Q60 15 60 20 Q60 25 65 35" 
        fill="none" 
        stroke="url(#handleGradient)" 
        stroke-width="4" 
        stroke-linecap="round"/>
  
  <!-- Highlight -->
  <ellipse cx="45" cy="50" rx="8" ry="15" fill="rgba(255,255,255,0.2)" transform="rotate(-15 45 50)"/>
</svg>
