<svg viewBox="0 0 100 100" xmlns="http://www.w3.org/2000/svg">
  <defs>
    <linearGradient id="starGradient" x1="0%" y1="0%" x2="100%" y2="100%">
      <stop offset="0%" style="stop-color:#a8edea;stop-opacity:1" />
      <stop offset="100%" style="stop-color:#fed6e3;stop-opacity:1" />
    </linearGradient>
    <filter id="starShadow" x="-50%" y="-50%" width="200%" height="200%">
      <feDropShadow dx="3" dy="5" stdDeviation="4" flood-color="rgba(0,0,0,0.2)"/>
    </filter>
    <radialGradient id="starInner" cx="50%" cy="30%" r="70%">
      <stop offset="0%" style="stop-color:#ffffff;stop-opacity:0.8" />
      <stop offset="100%" style="stop-color:#ffffff;stop-opacity:0" />
    </radialGradient>
  </defs>
  
  <!-- Star Shape -->
  <path d="M50 10 L60 35 L85 35 L67 50 L73 75 L50 60 L27 75 L33 50 L15 35 L40 35 Z" 
        fill="url(#starGradient)" 
        filter="url(#starShadow)"/>
  
  <!-- Inner Glow -->
  <path d="M50 15 L58 35 L75 35 L62 47 L67 67 L50 55 L33 67 L38 47 L25 35 L42 35 Z" 
        fill="url(#starInner)"/>
  
  <!-- Sparkle Points -->
  <circle cx="75" cy="25" r="2" fill="#ffffff" opacity="0.8"/>
  <circle cx="25" cy="65" r="1.5" fill="#ffffff" opacity="0.6"/>
  <circle cx="85" cy="70" r="1" fill="#ffffff" opacity="0.7"/>
</svg>
